<?xml version="1.0" standalone="no"?>
<!DOCTYPE svg PUBLIC "-//W3C//DTD SVG 20010904//EN"
 "http://www.w3.org/TR/2001/REC-SVG-20010904/DTD/svg10.dtd">
<svg version="1.0" xmlns="http://www.w3.org/2000/svg"
 width="512.000000pt" height="512.000000pt" viewBox="0 0 512.000000 512.000000"
 preserveAspectRatio="xMidYMid meet">
<metadata>
Created by potrace 1.11, written by Peter Selinger 2001-2013
</metadata>
<g transform="translate(0.000000,512.000000) scale(0.100000,-0.100000)"
fill="#000000" stroke="none">
<path d="M520 4658 c-75 -29 -150 -105 -179 -181 l-21 -58 2 -1872 3 -1872 27
-55 c15 -30 40 -67 55 -82 55 -54 86 -78 94 -72 5 3 9 0 9 -6 0 -6 5 -8 10 -5
20 13 9 -14 -12 -29 -12 -9 -18 -16 -13 -16 5 0 19 10 31 21 14 13 30 19 39
15 18 -6 11 -26 -8 -26 -7 0 -6 4 3 10 8 5 10 10 4 10 -6 0 -16 -6 -22 -13 -9
-10 -4 -13 23 -14 27 0 32 3 28 16 -3 9 4 3 16 -14 11 -16 21 -25 21 -20 0 6
-5 16 -11 22 -8 8 -7 13 2 18 8 5 10 4 5 -3 -5 -8 1 -12 14 -12 13 0 19 4 14
12 -4 7 -3 8 5 4 6 -4 8 -13 4 -19 -4 -7 2 -5 12 3 10 8 16 10 13 5 -4 -6 -2
-17 4 -25 8 -13 9 -13 5 1 -3 9 -1 22 4 30 7 11 9 10 9 -6 0 -17 2 -17 10 -5
8 12 10 12 10 -5 0 -16 2 -17 9 -5 6 8 8 17 6 20 -2 4 2 7 10 7 12 0 12 -3 2
-15 -10 -13 -9 -14 7 -5 10 6 28 8 39 5 15 -4 18 -2 12 8 -5 9 -4 11 4 6 6 -4
8 -13 4 -19 -4 -7 2 -5 12 3 10 8 16 10 13 5 -4 -6 -2 -17 4 -25 8 -13 9 -13
5 1 -3 9 -1 22 4 30 7 11 9 10 9 -6 0 -17 2 -17 10 -5 8 12 10 12 10 -5 0 -16
2 -17 9 -5 6 8 8 17 6 20 -2 4 2 7 10 7 12 0 12 -3 2 -15 -10 -13 -9 -14 11
-3 12 6 22 9 22 5 0 -3 7 0 17 7 15 13 15 12 3 -11 -12 -24 -12 -24 6 -9 10 9
25 14 33 11 9 -3 11 0 6 8 -5 9 -4 11 4 6 6 -4 9 -11 6 -16 -3 -4 3 -14 13
-21 15 -12 16 -12 4 2 -10 13 -9 19 3 29 13 11 14 10 8 -6 -6 -17 -5 -18 12
-4 14 11 17 12 11 1 -6 -9 -5 -12 5 -9 8 3 13 11 11 18 -3 11 0 11 12 0 13
-10 19 -10 33 1 11 10 14 10 9 2 -10 -17 16 -17 33 0 11 9 13 9 7 0 -5 -9 0
-13 14 -13 13 0 19 4 14 12 -4 7 -3 8 5 4 6 -4 8 -13 4 -19 -4 -7 0 -7 10 1
14 12 16 11 12 -7 -2 -12 0 -19 6 -16 5 4 7 10 5 14 -3 4 -1 13 5 21 7 13 9
12 9 -2 0 -10 5 -18 11 -18 5 0 7 5 3 12 -4 6 -3 8 4 4 6 -3 13 -2 17 4 3 5
12 10 18 10 8 0 8 -3 2 -8 -5 -4 -17 -16 -25 -27 -15 -20 -14 -20 8 -1 12 11
23 16 23 13 1 -4 2 -11 3 -16 0 -5 3 -11 6 -13 3 -2 4 -1 3 1 -2 2 3 11 10 19
9 13 9 14 0 8 -8 -4 -13 -2 -13 4 0 7 6 10 14 7 7 -3 19 0 26 6 10 9 11 9 6 0
-9 -17 16 -17 33 -1 11 10 13 10 7 1 -9 -17 6 -17 23 -1 10 11 11 9 5 -7 -7
-18 -6 -19 11 -5 14 11 17 12 11 1 -6 -9 -5 -12 5 -9 8 3 13 11 11 17 -1 7 2
10 8 6 6 -3 8 -10 5 -15 -3 -4 3 -14 13 -21 16 -13 16 -13 2 5 -13 17 -13 19
0 14 8 -3 24 2 34 11 18 15 18 15 7 -6 -16 -31 -14 -41 4 -16 10 15 21 19 36
16 17 -5 20 -3 14 7 -5 9 -4 11 4 6 6 -4 8 -13 4 -19 -4 -7 2 -5 12 3 10 8 16
10 13 5 -4 -6 -2 -17 4 -25 8 -13 9 -13 5 1 -3 9 -1 22 4 30 7 11 9 10 9 -6 0
-17 2 -17 10 -5 8 12 10 12 10 -5 0 -16 2 -17 9 -5 6 8 8 17 6 20 -2 4 2 7 10
7 12 0 12 -3 2 -15 -10 -13 -9 -14 7 -5 10 6 28 8 39 5 15 -4 18 -2 12 8 -5 9
-4 11 4 6 6 -4 8 -13 4 -19 -4 -7 2 -5 12 3 10 8 16 10 13 5 -4 -6 -2 -17 4
-25 8 -13 9 -13 5 1 -3 9 -1 22 4 30 7 11 9 10 9 -6 0 -17 2 -17 10 -5 8 12
10 12 10 -5 0 -16 2 -17 9 -5 6 8 8 17 6 20 -2 4 2 7 10 7 12 0 12 -3 2 -15
-10 -13 -9 -14 9 -4 12 6 24 9 27 5 4 -3 14 0 24 8 11 9 14 10 9 2 -4 -8 -2
-13 6 -13 8 0 20 6 27 13 11 9 13 9 7 0 -5 -9 0 -13 14 -13 13 0 19 4 14 12
-4 7 -3 8 5 4 6 -4 8 -13 4 -19 -4 -7 0 -7 10 1 14 12 16 11 12 -7 -2 -12 0
-19 6 -16 5 4 7 10 5 14 -3 4 -1 13 5 21 7 13 9 13 9 0 0 -8 10 -21 23 -29
l22 -14 -20 23 -20 23 20 -11 c11 -5 24 -12 30 -14 5 -1 9 -6 8 -10 -5 -15 15
-8 21 8 3 8 2 12 -4 9 -6 -3 -10 -1 -10 5 0 7 6 10 14 7 7 -3 19 0 26 6 10 9
11 9 6 0 -9 -17 16 -17 33 -1 11 10 13 10 7 1 -9 -17 16 -17 33 -1 11 11 13
11 7 0 -4 -7 -2 -12 6 -12 8 0 20 6 27 12 11 10 13 10 7 1 -5 -9 0 -13 14 -13
13 0 19 4 14 12 -4 7 -3 8 5 4 6 -4 8 -13 4 -19 -4 -7 0 -7 10 1 14 12 16 11
12 -7 -2 -12 0 -19 6 -16 5 4 7 10 5 14 -3 4 -1 13 5 21 7 13 9 13 9 0 0 -8
10 -21 23 -29 l22 -14 -20 23 -20 23 21 -11 c12 -6 26 -7 34 -2 8 5 18 6 22 3
5 -2 16 1 25 9 12 9 15 9 9 1 -10 -17 16 -17 33 -1 11 10 13 10 7 1 -5 -9 0
-13 14 -13 13 0 19 4 14 12 -4 7 -3 8 5 4 6 -4 8 -13 4 -19 -4 -7 2 -5 12 3
10 8 16 10 13 5 -4 -6 -2 -17 4 -25 8 -13 9 -13 5 1 -3 9 -1 22 4 30 7 11 9
10 9 -6 0 -17 2 -17 10 -5 8 12 10 12 10 -5 0 -16 2 -17 9 -5 6 8 8 17 6 20
-2 4 2 7 10 7 12 0 12 -3 2 -15 -10 -13 -9 -14 7 -5 10 6 28 8 39 5 15 -4 18
-2 12 8 -5 9 -4 11 4 6 6 -4 8 -13 4 -19 -4 -7 2 -5 12 3 10 8 16 10 13 5 -4
-6 -2 -17 4 -25 8 -13 9 -13 5 1 -3 9 -1 22 4 30 7 11 9 10 9 -6 0 -17 2 -17
10 -5 8 12 10 12 10 -5 0 -16 2 -17 9 -5 6 8 8 17 6 20 -2 4 2 7 10 7 12 0 12
-3 2 -15 -10 -13 -9 -14 11 -3 12 6 22 9 22 5 0 -3 7 0 17 7 15 13 15 12 3
-11 -12 -24 -12 -24 6 -9 10 9 25 14 33 11 9 -3 11 0 6 8 -5 9 -4 11 4 6 6 -4
9 -11 6 -16 -3 -4 3 -14 13 -21 15 -12 16 -12 4 2 -10 13 -9 19 3 29 13 11 14
10 8 -6 -6 -17 -5 -18 12 -4 14 11 17 12 11 1 -6 -9 -5 -12 5 -9 8 3 13 11 11
18 -3 11 0 11 12 0 13 -10 19 -10 33 1 11 10 14 10 9 2 -10 -17 16 -17 33 -1
11 10 13 10 7 1 -5 -9 0 -13 14 -13 13 0 19 4 14 12 -4 7 -3 8 5 4 6 -4 8 -13
4 -19 -4 -7 0 -7 10 1 14 12 16 11 12 -7 -2 -12 0 -19 6 -16 5 4 7 10 5 14 -3
4 -1 13 5 21 7 13 9 12 9 -2 0 -10 5 -18 11 -18 5 0 7 5 3 12 -4 6 -3 8 4 4 6
-3 13 -2 17 4 3 5 12 10 18 10 8 0 8 -3 2 -8 -5 -4 -17 -16 -25 -27 -15 -20
-14 -20 8 -1 12 11 23 16 23 13 1 -4 2 -11 3 -16 0 -5 4 -12 9 -15 4 -3 5 -3
2 1 -3 3 1 13 8 21 9 13 9 14 0 8 -8 -4 -13 -2 -13 4 0 7 6 10 14 7 7 -3 19 0
26 6 10 9 11 9 6 0 -9 -17 16 -17 33 -1 11 10 13 10 7 1 -9 -17 6 -17 23 -1
10 11 11 9 5 -7 -7 -18 -6 -19 11 -5 14 11 17 12 11 1 -6 -9 -5 -12 5 -9 8 3
13 11 11 17 -1 7 2 10 8 6 6 -3 8 -10 5 -15 -3 -4 3 -14 13 -21 16 -13 16 -13
2 5 -13 17 -13 19 0 14 8 -3 24 2 34 11 18 15 18 15 7 -6 -16 -31 -14 -41 4
-16 10 15 21 19 36 16 17 -5 20 -3 14 7 -5 9 -4 11 4 6 6 -4 8 -13 4 -19 -4
-7 2 -5 12 3 10 8 16 10 13 5 -4 -6 -2 -17 4 -25 8 -13 9 -13 5 1 -3 9 -1 22
4 30 7 11 9 10 9 -6 0 -17 2 -17 10 -5 8 12 10 12 10 -5 0 -16 2 -17 9 -5 6 8
8 17 6 20 -2 4 2 7 10 7 12 0 12 -3 2 -15 -10 -13 -9 -14 7 -5 10 6 28 8 39 5
15 -4 18 -2 12 8 -5 9 -4 11 4 6 6 -4 8 -13 4 -19 -4 -7 2 -5 12 3 10 8 16 10
13 5 -4 -6 -2 -17 4 -25 8 -13 9 -13 5 1 -3 9 -1 22 4 30 7 11 9 10 9 -6 0
-17 2 -17 10 -5 8 12 10 12 10 -5 0 -16 2 -17 9 -5 6 8 8 17 6 20 -2 4 2 7 10
7 12 0 12 -3 2 -15 -10 -13 -9 -14 9 -4 12 6 24 9 27 5 4 -3 14 0 24 8 11 9
14 10 9 2 -10 -17 16 -17 33 0 11 10 13 10 7 0 -5 -9 0 -13 14 -13 13 0 19 4
14 12 -4 7 -3 8 5 4 6 -4 8 -13 4 -19 -4 -7 0 -7 10 1 14 12 16 11 12 -7 -2
-12 0 -19 6 -16 5 4 7 10 5 14 -3 4 -1 13 5 21 7 13 9 13 9 0 0 -8 10 -21 23
-29 l22 -14 -20 23 -20 23 20 -11 c11 -5 24 -12 30 -14 5 -1 9 -6 8 -10 -5
-15 15 -8 21 8 3 8 2 12 -4 9 -6 -3 -10 -1 -10 5 0 7 6 10 14 7 7 -3 19 0 26
6 10 9 11 9 6 0 -9 -17 16 -17 33 0 11 9 13 9 7 0 -9 -17 16 -17 33 0 11 9 13
9 7 0 -9 -17 16 -17 33 0 11 9 13 9 7 0 -5 -9 0 -13 14 -13 13 0 19 4 14 12
-4 7 -3 8 5 4 6 -4 8 -13 4 -19 -4 -7 0 -7 10 1 14 12 16 11 12 -7 -2 -12 0
-19 6 -16 5 4 7 10 5 14 -3 4 -1 13 5 21 7 13 9 13 9 0 0 -8 10 -21 23 -29
l22 -14 -20 23 -20 23 21 -11 c12 -6 26 -7 34 -2 8 5 18 6 22 3 5 -2 16 1 25
9 12 9 15 9 9 0 -10 -16 16 -16 34 1 12 10 12 9 2 -5 -10 -12 -10 -18 -1 -24
7 -4 9 -3 6 3 -4 6 0 13 8 17 8 3 15 0 15 -6 0 -7 6 -4 13 5 6 9 21 15 32 13
11 -2 24 2 28 8 6 7 7 4 3 -6 -3 -11 3 -23 14 -31 11 -8 17 -17 12 -22 -4 -5
-1 -5 7 0 12 7 12 10 0 19 -29 23 -21 45 26 67 60 28 129 106 155 175 20 55
20 57 18 1927 l-3 1872 -28 57 c-32 65 -89 121 -156 152 l-46 21 -1995 2
-1995 2 -55 -21z m1607 -4224 c-3 -3 -12 -4 -19 -1 -8 3 -5 6 6 6 11 1 17 -2
13 -5z m323 0 c0 -8 -19 -13 -24 -6 -3 5 1 9 9 9 8 0 15 -2 15 -3z m1597 0
c-3 -3 -12 -4 -19 -1 -8 3 -5 6 6 6 11 1 17 -2 13 -5z m323 0 c0 -8 -19 -13
-24 -6 -3 5 1 9 9 9 8 0 15 -2 15 -3z"/>
<path d="M4666 461 c-3 -4 6 -7 19 -7 14 0 22 2 19 5 -8 8 -34 10 -38 2z"/>
<path d="M4600 450 c-9 -6 -10 -10 -3 -10 6 0 15 5 18 10 8 12 4 12 -15 0z"/>
<path d="M4511 412 c0 -11 2 -12 6 -4 2 6 9 10 13 7 5 -3 11 -2 14 3 2 4 -4 9
-15 9 -12 1 -19 -4 -18 -15z"/>
<path d="M1142 404 c10 -10 20 -16 22 -13 3 3 -5 11 -17 18 -21 13 -21 12 -5
-5z"/>
<path d="M1416 407 c3 -10 9 -15 12 -12 3 3 0 11 -7 18 -10 9 -11 8 -5 -6z"/>
<path d="M1587 409 c7 -7 15 -10 18 -7 3 3 -2 9 -12 12 -14 6 -15 5 -6 -5z"/>
<path d="M1942 404 c10 -10 20 -16 22 -13 3 3 -5 11 -17 18 -21 13 -21 12 -5
-5z"/>
<path d="M2216 407 c3 -10 9 -15 12 -12 3 3 0 11 -7 18 -10 9 -11 8 -5 -6z"/>
<path d="M2262 404 c10 -10 20 -16 22 -13 3 3 -5 11 -17 18 -21 13 -21 12 -5
-5z"/>
<path d="M2493 405 c0 -8 4 -12 9 -9 5 3 6 10 3 15 -9 13 -12 11 -12 -6z"/>
<path d="M3062 404 c10 -10 20 -16 22 -13 3 3 -5 11 -17 18 -21 13 -21 12 -5
-5z"/>
<path d="M3336 407 c3 -10 9 -15 12 -12 3 3 0 11 -7 18 -10 9 -11 8 -5 -6z"/>
<path d="M3507 409 c7 -7 15 -10 18 -7 3 3 -2 9 -12 12 -14 6 -15 5 -6 -5z"/>
<path d="M3862 404 c10 -10 20 -16 22 -13 3 3 -5 11 -17 18 -21 13 -21 12 -5
-5z"/>
<path d="M4136 407 c3 -10 9 -15 12 -12 3 3 0 11 -7 18 -10 9 -11 8 -5 -6z"/>
<path d="M4182 404 c10 -10 20 -16 22 -13 3 3 -5 11 -17 18 -21 13 -21 12 -5
-5z"/>
<path d="M4413 405 c0 -8 4 -12 9 -9 5 3 6 10 3 15 -9 13 -12 11 -12 -6z"/>
<path d="M2453 395 c0 -8 4 -12 9 -9 4 3 8 9 8 15 0 5 -4 9 -8 9 -5 0 -9 -7
-9 -15z"/>
<path d="M4373 395 c0 -8 4 -12 9 -9 4 3 8 9 8 15 0 5 -4 9 -8 9 -5 0 -9 -7
-9 -15z"/>
</g>
</svg>
